<svg width="368" height="162" viewBox="0 0 368 162" fill="none" xmlns="http://www.w3.org/2000/svg">
<path d="M291.11 47.5298H174.75C169.86 47.5298 165.9 51.4898 165.9 56.3798V59.2298H299.97V56.3798C299.97 51.4898 296.01 47.5298 291.11 47.5298ZM177.39 55.7698C176.37 55.7698 175.53 54.9298 175.53 53.8998C175.53 52.8698 176.37 52.0398 177.39 52.0398C178.41 52.0398 179.26 52.8798 179.26 53.8998C179.26 54.9198 178.42 55.7698 177.39 55.7698ZM184.2 55.7698C183.17 55.7698 182.34 54.9298 182.34 53.8998C182.34 52.8698 183.17 52.0398 184.2 52.0398C185.23 52.0398 186.06 52.8798 186.06 53.8998C186.06 54.9198 185.23 55.7698 184.2 55.7698ZM191.01 55.7698C189.98 55.7698 189.15 54.9298 189.15 53.8998C189.15 52.8698 189.98 52.0398 191.01 52.0398C192.04 52.0398 192.87 52.8798 192.87 53.8998C192.87 54.9198 192.04 55.7698 191.01 55.7698Z" fill="url(#paint0_linear_6393_12595)"/>
<path d="M127.77 68.3301H165.9V120.46H120.8C118.44 120.46 116.53 118.55 116.53 116.2V79.1401" stroke="#686868" stroke-width="1.8" stroke-linecap="round" stroke-linejoin="round"/>
<path d="M153.42 35.12L160.56 37.62L153.42 40.12L151.04 47.74L148.66 40.12L141.51 37.62L148.66 35.12L151.04 27.5L153.42 35.12Z" stroke="#686868" stroke-width="1.8" stroke-miterlimit="10"/>
<path d="M171.24 26.2599L173.39 26.9699L171.24 27.6799L170.53 29.8299L169.82 27.6799L167.67 26.9699L169.82 26.2599L170.53 24.1099L171.24 26.2599Z" stroke="#686868" stroke-width="1.8"/>
<path d="M319.16 71.1002L321.31 71.8102L319.16 72.5202L318.45 74.6702L317.74 72.5202L315.59 71.8102L317.74 71.1002L318.45 68.9502L319.16 71.1002Z" stroke="#686868" stroke-width="1.8"/>
<path d="M34.07 128.54H24.05M343.96 128.54H299.99M165.91 128.54H43.26" stroke="#686868" stroke-width="1.8" stroke-linecap="round" stroke-linejoin="round"/>
<path d="M299.98 87.8698V56.3798C299.98 51.4898 296.01 47.5298 291.12 47.5298H174.76C169.87 47.5298 165.9 51.4898 165.9 56.3798V129.03C165.9 133.93 169.87 137.89 174.76 137.89H291.12C296.01 137.89 299.98 133.93 299.98 129.03V114.48" stroke="#686868" stroke-width="1.8" stroke-linecap="round" stroke-linejoin="round"/>
<path d="M234.13 49.2498V41.2798C234.13 33.1198 240.74 26.5098 248.9 26.5098C257.06 26.5098 263.67 33.1198 263.67 41.2798V49.2498" stroke="#686868" stroke-width="1.8" stroke-linecap="round" stroke-linejoin="round"/>
<path d="M281.2 41.25H207.61L200.39 122.85H288.43L281.2 41.25ZM252.35 70.06C252.35 71.75 250.98 73.12 249.29 73.12H226.54C224.85 73.12 223.48 71.75 223.48 70.06V64.3C223.48 62.61 224.85 61.24 226.54 61.24H249.29C250.98 61.24 252.35 62.61 252.35 64.3V70.06Z" fill="#FFDE83"/>
<path d="M281.2 41.25H207.61L200.39 122.85H288.43L281.2 41.25Z" stroke="#686868" stroke-width="1.8" stroke-linecap="round" stroke-linejoin="round"/>
<path d="M223.47 49.2498V41.2798C223.47 33.1198 230.08 26.5098 238.24 26.5098C246.4 26.5098 253.01 33.1198 253.01 41.2798V49.2498" stroke="#686868" stroke-width="1.8" stroke-linecap="round" stroke-linejoin="round"/>
<path d="M269.09 41.25L276.31 122.85" stroke="#686868" stroke-width="1.8" stroke-linecap="round" stroke-linejoin="round"/>
<path d="M234.13 128.77H177.46L181.39 85.6802H230.2L234.13 128.77Z" fill="#A2ECC2" stroke="#686868" stroke-width="1.8" stroke-linecap="round" stroke-linejoin="round"/>
<path d="M207.77 93.1299C207.77 98.2699 203.6 102.44 198.46 102.44C193.32 102.44 189.15 98.2699 189.15 93.1299" stroke="#686868" stroke-width="1.8" stroke-linecap="round" stroke-linejoin="round"/>
<path d="M312.03 98.5302L295.09 91.2002C294.75 91.0502 294.36 91.1302 294.1 91.3902C293.84 91.6502 293.76 92.0502 293.91 92.3802L301.24 109.32C301.38 109.65 301.71 109.86 302.07 109.86C302.09 109.86 302.11 109.86 302.14 109.86C302.52 109.83 302.84 109.57 302.94 109.2L304.24 104.36L308.32 108.46C308.71 108.85 309.23 109.05 309.74 109.05C310.25 109.05 310.76 108.86 311.15 108.47C311.93 107.69 311.94 106.43 311.15 105.64L307.06 101.52L311.92 100.22C312.29 100.12 312.56 99.8002 312.58 99.4202C312.6 99.0402 312.39 98.6802 312.04 98.5302H312.03Z" fill="#686868"/>
<path d="M155.37 100.14H137.53L134.4 86.5601H158.5L155.37 100.14Z" fill="#D1DAFA" stroke="#686868" stroke-width="1.8" stroke-linecap="round" stroke-linejoin="round"/>
<path d="M139.14 109.72C140.609 109.72 141.8 108.529 141.8 107.06C141.8 105.591 140.609 104.4 139.14 104.4C137.671 104.4 136.48 105.591 136.48 107.06C136.48 108.529 137.671 109.72 139.14 109.72Z" fill="#D1DAFA" stroke="#686868" stroke-width="1.8" stroke-linecap="round" stroke-linejoin="round"/>
<path d="M153.76 109.72C155.229 109.72 156.42 108.529 156.42 107.06C156.42 105.591 155.229 104.4 153.76 104.4C152.291 104.4 151.1 105.591 151.1 107.06C151.1 108.529 152.291 109.72 153.76 109.72Z" fill="#D1DAFA" stroke="#686868" stroke-width="1.8" stroke-linecap="round" stroke-linejoin="round"/>
<path d="M137.53 100.14L133.51 83.0698H128.44" stroke="#686868" stroke-width="1.8" stroke-linecap="round" stroke-linejoin="round"/>
<path d="M117.56 58.71C111.9 58.71 107.32 63.3 107.32 68.95C107.32 74.6 111.9 79.19 117.56 79.19C123.22 79.19 127.79 74.6 127.79 68.95C127.79 63.3 123.21 58.71 117.56 58.71ZM120.45 73.1C120.28 73.28 120.04 73.37 119.72 73.37H115.56C115.21 73.37 114.93 73.26 114.72 73.06C114.51 72.86 114.41 72.61 114.41 72.33C114.41 72.16 114.47 71.95 114.58 71.69C114.7 71.44 114.82 71.24 114.96 71.09C115.48 70.56 115.93 70.11 116.33 69.74C116.76 69.35 117.04 69.11 117.23 68.99C117.52 68.78 117.76 68.57 117.95 68.37C118.14 68.17 118.28 67.96 118.38 67.76C118.47 67.56 118.52 67.36 118.52 67.18C118.52 66.98 118.47 66.81 118.38 66.66C118.29 66.51 118.17 66.39 118.01 66.31C117.85 66.22 117.67 66.18 117.48 66.18C117.07 66.18 116.76 66.36 116.53 66.72C116.53 66.73 116.48 66.8 116.36 67.13C116.26 67.41 116.15 67.62 116.02 67.78C115.86 67.98 115.63 68.08 115.34 68.08C115.08 68.08 114.86 67.99 114.69 67.82C114.52 67.65 114.43 67.42 114.43 67.13C114.43 66.84 114.5 66.54 114.63 66.23C114.76 65.91 114.95 65.63 115.2 65.37C115.46 65.12 115.78 64.92 116.17 64.76C116.56 64.61 117.01 64.53 117.51 64.53C118.12 64.53 118.65 64.63 119.09 64.83C119.38 64.96 119.64 65.15 119.86 65.38C120.09 65.62 120.26 65.89 120.38 66.19C120.5 66.49 120.57 66.82 120.57 67.15C120.57 67.66 120.44 68.13 120.18 68.55C119.94 68.95 119.68 69.27 119.43 69.5C119.18 69.72 118.78 70.06 118.2 70.53C117.69 70.96 117.32 71.29 117.11 71.53H119.55C119.9 71.53 120.18 71.61 120.38 71.77C120.59 71.94 120.71 72.17 120.71 72.46C120.71 72.71 120.62 72.92 120.45 73.1Z" fill="url(#paint1_linear_6393_12595)"/>
<path d="M117.56 79.19C123.215 79.19 127.8 74.6054 127.8 68.95C127.8 63.2946 123.215 58.71 117.56 58.71C111.905 58.71 107.32 63.2946 107.32 68.95C107.32 74.6054 111.905 79.19 117.56 79.19Z" stroke="#686868" stroke-width="1.8" stroke-linecap="round" stroke-linejoin="round"/>
<path d="M220.29 85.6802L223.15 128.77" stroke="#686868" stroke-width="1.8" stroke-linecap="round" stroke-linejoin="round"/>
<defs>
<linearGradient id="paint0_linear_6393_12595" x1="183.42" y1="31.7898" x2="209.59" y2="44.0498" gradientUnits="userSpaceOnUse">
<stop stop-color="#FF7002"/>
<stop offset="1" stop-color="#EBC03B"/>
</linearGradient>
<linearGradient id="paint1_linear_6393_12595" x1="107.32" y1="68.95" x2="127.79" y2="68.95" gradientUnits="userSpaceOnUse">
<stop stop-color="#FF7002"/>
<stop offset="1" stop-color="#EBC03B"/>
</linearGradient>
</defs>
</svg>
